<svg version="1.0" fill="currentColor" xmlns="http://www.w3.org/2000/svg" width="300" height="500" viewBox="200 0 500 852"><path d="M392.4 56a60.3 60.3 0 0 0-45.9 33.5 53.6 53.6 0 0 0-6.5 26.9 60.6 60.6 0 0 0 89.3 53.4 66.3 66.3 0 0 0 30.2-38.8 75 75 0 0 0-1.5-34.9A65.3 65.3 0 0 0 428.1 62a65 65 0 0 0-35.7-6zM314.7 195a79.9 79.9 0 0 0-56.9 55.6l-2.3 7.9v208l3.1 5.5a27 27 0 0 0 25.6 13.7c6.3-.8 13.9-4.8 17.7-9.4 6.3-7.7 6.1-3.9 6.1-100V289h14l.2 241.2.3 241.3 2.7 5.7a38.5 38.5 0 0 0 17.6 17.6c4.9 2.3 7 2.7 14.7 2.7 7.6 0 9.9-.4 14.6-2.6a35.9 35.9 0 0 0 17-16.1l3.4-6.3.3-142.3.2-142.2h15l.2 141.7.3 141.8 2.7 5.7a38.5 38.5 0 0 0 17.6 17.6c4.9 2.3 7 2.7 14.7 2.7 8.2 0 9.7-.3 15.7-3.3a37.3 37.3 0 0 0 17-17l2.3-4.7.3-241.8.2-241.7h13.9l.3 88.7.3 88.8 2.2 4.1c8.9 16.6 29.5 20.3 42.3 7.5 8.6-8.6 8.1-.7 7.7-118.2-.3-112 .1-104.6-5.7-118.9a71.6 71.6 0 0 0-17.5-25.5 79.2 79.2 0 0 0-31-19.2l-8-2.8-80.5-.2c-76.5-.2-80.9-.1-88.3 1.7z"/></svg>
